<?xml version="1.0" encoding="UTF-8" standalone="no"?>
<!-- Created with Inkscape (http://www.inkscape.org/) -->

<svg
   xmlns:dc="http://purl.org/dc/elements/1.1/"
   xmlns:cc="http://creativecommons.org/ns#"
   xmlns:rdf="http://www.w3.org/1999/02/22-rdf-syntax-ns#"
   xmlns:svg="http://www.w3.org/2000/svg"
   xmlns="http://www.w3.org/2000/svg"
   xmlns:sodipodi="http://sodipodi.sourceforge.net/DTD/sodipodi-0.dtd"
   xmlns:inkscape="http://www.inkscape.org/namespaces/inkscape"
   version="1.1"
   id="svg2"
   width="755.86206"
   height="1162.7865"
   viewBox="0 0 755.86206 1162.7865"
   sodipodi:docname="littleaircraftRed.svg"
   inkscape:version="0.92.4 (5da689c313, 2019-01-14)">
  <metadata
     id="metadata8">
    <rdf:RDF>
      <cc:Work
         rdf:about="">
        <dc:format>image/svg+xml</dc:format>
        <dc:type
           rdf:resource="http://purl.org/dc/dcmitype/StillImage" />
        <dc:title></dc:title>
      </cc:Work>
    </rdf:RDF>
  </metadata>
  <defs
     id="defs6" />
  <sodipodi:namedview
     pagecolor="#ffffff"
     bordercolor="#666666"
     borderopacity="1"
     objecttolerance="10"
     gridtolerance="10"
     guidetolerance="10"
     inkscape:pageopacity="0"
     inkscape:pageshadow="2"
     inkscape:window-width="1374"
     inkscape:window-height="868"
     id="namedview4"
     showgrid="false"
     inkscape:zoom="0.40592147"
     inkscape:cx="377.93103"
     inkscape:cy="581.39325"
     inkscape:window-x="66"
     inkscape:window-y="0"
     inkscape:window-maximized="1"
     inkscape:current-layer="svg2" />
  <path
     style="fill:#ff0000;stroke-width:1.09097958;fill-opacity:1"
     d="m 338.75862,1118.4698 v -44.3168 l -7.12933,0.3617 -7.12932,0.3617 -0.31895,-6.4719 c -0.17543,-3.5596 -0.15905,-9.3843 0.0364,-12.9438 l 0.35532,-6.472 7.09296,0.3618 7.09295,0.3616 v -43.7774 c -4e-5,-28.46584 0.3859,-43.77741 1.1034,-43.77741 0.71821,0 1.10345,15.89217 1.10345,45.51911 0,35.4037 -0.29425,45.2314 -1.32413,44.2247 -0.72828,-0.7119 -4.20414,-1.2944 -7.72414,-1.2944 h -6.4 v 4.8488 4.8489 l 6.06896,-0.1368 c 4.33159,-0.098 6.06897,-0.5593 6.06897,-1.6129 0,-2.0024 4.3235,-1.8825 5.1182,0.1419 0.77924,1.985 6.7951,2.1287 14.67617,0.3504 4.23399,-0.9554 6.30724,-2.1511 8.4162,-4.854 1.59706,-2.0468 3.7886,-3.5863 5.10526,-3.5863 2.28927,0 2.30082,-0.1627 1.50589,-21.2099 -0.46348,-12.2717 -1.68877,-26.2496 -2.90752,-33.16854 -1.54622,-8.7781 -2.10841,-17.1942 -2.11378,-31.644 l -0.007,-19.6854 h -2.83116 c -1.55714,0 -3.79162,-0.50247 -4.96552,-1.1166 -1.93443,-1.01201 -2.13435,-2.37245 -2.13435,-14.52385 0,-12.1514 0.19992,-13.51183 2.13435,-14.52385 1.1739,-0.61413 3.1601,-1.1166 4.4138,-1.1166 2.20122,0 2.27943,-0.54928 2.27943,-16.00828 0,-8.80454 -0.3258,-23.36634 -0.724,-32.35955 l -0.72401,-16.35127 H 317.0694 269.24169 v -28.04494 -28.04494 h 47.44827 47.44828 l 0.006,-8.89888 c 0.0164,-28.40115 -2.51536,-132.41904 -3.8976,-160.1211 -0.89383,-17.9138 -1.62515,-33.98292 -1.62515,-35.70917 0,-2.32138 -1.67989,-4.93462 -6.45167,-10.0362 -4.94756,-5.28951 -9.69086,-12.80714 -20.34576,-32.24589 -17.87084,-32.60347 -32.29065,-65.77696 -36.10274,-83.05617 -0.71986,-3.26292 -1.79593,-7.81973 -2.39128,-10.12626 l -1.08245,-4.19365 -5.37782,5.17792 c -4.13922,3.98535 -5.45424,6.06918 -5.7096,9.04759 -0.30756,3.58704 -0.61994,3.89331 -4.27687,4.19322 -3.62574,0.29734 -13.20008,9.38584 -118.27828,112.27651 C 95.720977,640.69103 40.357747,694.51836 35.574827,698.73321 l -8.69621,7.66335 -13.51511,-13.2432 L -0.15160222,679.91017 136.20006,547.42175 272.55172,414.93333 l 0.0245,-117.66891 c 0.0241,-115.58112 0.0632,-117.71677 2.20689,-120.36555 l 2.1824,-2.69663 2.18236,2.69663 c 2.06211,2.54805 2.18371,4.46483 2.2069,34.78652 0.0265,34.58334 -0.0873,33.95611 5.61432,30.97329 2.01356,-1.05341 2.03167,-1.2698 0.31997,-3.82348 -1.74015,-2.59614 -1.69545,-2.82821 1.09262,-5.67295 2.83663,-2.89427 3.00244,-3.8657 6.84958,-40.13158 4.22487,-39.82669 6.77858,-52.47517 14.25449,-70.60243 6.5131,-15.79269 12.63176,-22.662151 25.4108,-28.528808 11.47057,-5.26598 16.66793,-5.98932 43.03448,-5.98932 26.36655,0 31.56391,0.72334 43.03448,5.98932 12.77674,5.865607 18.89796,12.736738 25.40702,28.519638 7.36509,17.85854 10.17267,31.79567 14.33357,71.15354 3.77602,35.71736 3.94465,36.70252 6.77683,39.59225 2.7855,2.8421 2.83015,3.07433 1.09007,5.67034 -1.7117,2.55368 -1.69359,2.77007 0.31997,3.82348 5.70157,2.98282 5.58787,3.61005 5.61432,-30.97329 0.0232,-30.32169 0.14479,-32.23847 2.2069,-34.78652 l 2.18236,-2.69663 2.18235,2.69663 c 2.05272,2.53644 2.18383,4.45569 2.2069,32.30847 l 0.0245,29.61183 122.31358,-119.40958 C 672.89638,53.734314 728.39379,8.0430083e-8 728.95151,8.0430083e-8 729.50921,8.0430083e-8 735.91638,5.8686131 743.18965,13.041363 l 13.22413,13.041362 -136.54513,132.852825 -136.54514,132.85283 -0.28245,87.36423 -0.28245,87.36424 h -3.86206 -3.86207 l -0.55173,-18.87641 -0.55172,-18.8764 -2.90427,-0.0327 c -2.86976,-0.0323 -2.95915,0.20477 -7.52577,19.95505 -7.42391,32.10789 -17.72653,57.45958 -39.46482,97.11129 -10.092,18.40827 -15.63145,27.26791 -20.23274,32.35955 l -6.33601,7.01124 -1.76839,36.67415 c -1.51295,31.37665 -3.9749,131.35652 -3.9749,161.42078 v 9.54556 h 47.44828 47.44827 v 28.04494 28.04494 h -47.82835 -47.82836 l -0.71933,15.37079 c -0.39563,8.45393 -0.72115,23.01573 -0.72336,32.35955 -0.004,16.45115 0.0681,16.98876 2.27539,16.98876 1.2537,0 3.2399,0.50247 4.4138,1.1166 1.93443,1.01202 2.13435,2.37245 2.13435,14.52385 0,12.1514 -0.19992,13.51184 -2.13435,14.52385 -1.1739,0.61413 -3.40838,1.1166 -4.96552,1.1166 h -2.83116 v 19.56557 c 0,14.29225 -0.57442,22.94105 -2.1313,32.08985 -1.358,7.98014 -2.60231,23.67834 -3.42944,43.26594 -1.44513,34.2223 -0.93961,32.4582 -9.50719,33.1773 -4.12113,0.3458 -4.87327,0.016 -7.43179,-3.2635 -2.15986,-2.768 -4.20197,-3.954 -8.46453,-4.9158 -7.88107,-1.7783 -13.89693,-1.6347 -14.67617,0.3503 -0.79468,2.0244 -3.88791,2.1176 -4.66402,0.1405 -0.3828,-0.9751 -2.6222,-1.5236 -6.58607,-1.6129 l -6.00604,-0.1353 v 4.8488 4.8488 h 6.4 c 3.52,0 6.99586,-0.5825 7.72414,-1.2944 1.02988,-1.0067 1.32413,8.9409 1.32413,44.7641 0,29.9865 -0.38505,46.0584 -1.10345,46.0584 -0.71772,0 -1.10344,-15.4914 -1.10344,-44.3167 z m 28.1512,-176.82788 c 0.38238,-0.6048 0.34419,-6.67222 -0.0849,-13.48315 -0.73976,-11.74242 -0.90376,-12.3835 -3.16808,-12.3835 -1.31336,0 -2.98379,0.58247 -3.71207,1.29438 -1.81003,1.76936 -1.81003,22.60817 0,24.37753 1.61651,1.58018 6.01137,1.70306 6.965,0.19474 z m 29.00742,-0.19474 c 0.85508,-0.83587 1.32413,-5.15356 1.32413,-12.18877 0,-11.49561 -0.74237,-13.48314 -5.0362,-13.48314 -2.26432,0 -2.42832,0.64108 -3.16805,12.3835 -0.42907,6.81093 -0.46726,12.87835 -0.0849,13.48315 0.95363,1.50832 5.34849,1.38544 6.965,-0.19474 z m 78.43958,-530.75056 -0.12594,-14.29213 -2.39393,13.48314 -2.39393,13.48315 2.244,0.70147 c 1.23421,0.38581 2.36815,0.74986 2.51987,0.80899 0.15173,0.0591 0.21919,-6.32394 0.14993,-14.18462 z m -191.63156,-9.39071 c -0.66508,-4.42964 -1.34595,-4.14864 -1.34595,0.5555 0,2.11142 0.41376,3.58896 0.91947,3.28345 0.50571,-0.30553 0.69762,-2.03306 0.42648,-3.83895 z m 2.57715,-150.66574 c -0.36015,-1.40265 -1.39017,-2.55029 -2.28895,-2.55029 -1.35206,0 -1.61767,2.09478 -1.53866,12.13484 l 0.0954,12.13483 2.19344,-9.58455 c 1.2064,-5.27149 1.89879,-10.73216 1.53866,-12.13483 z m 186.42172,-0.39298 c 1.09847,-1.18652 1.54315,-2.15731 0.98817,-2.15731 -0.55496,0 -1.62924,0.97079 -2.38726,2.15731 -0.75803,1.18651 -1.20271,2.1573 -0.98817,2.1573 0.21453,0 1.28879,-0.97079 2.38726,-2.1573 z"
     id="path12"
     inkscape:connector-curvature="0" />
</svg>
